<svg id="Group_337" data-name="Group 337" xmlns="http://www.w3.org/2000/svg" xmlns:xlink="http://www.w3.org/1999/xlink" width="24" height="24" viewBox="0 0 24 24">
  <defs>
    <clipPath id="clip-path">
      <rect id="Rectangle_278" data-name="Rectangle 278" width="24" height="24" fill="#00241e"/>
    </clipPath>
  </defs>
  <g id="Group_335" data-name="Group 335" clip-path="url(#clip-path)">
    <path id="Path_792" data-name="Path 792" d="M12,0A12,12,0,1,0,24,12,12,12,0,0,0,12,0m0,22.36A10.36,10.36,0,1,1,22.36,12,10.362,10.362,0,0,1,12,22.36" fill="#00241e"/>
    <path id="Path_793" data-name="Path 793" d="M8.9,12a1.635,1.635,0,1,1-1.635-1.635A1.635,1.635,0,0,1,8.9,12" transform="translate(0 0)" fill="#00241e"/>
    <path id="Path_794" data-name="Path 794" d="M13.635,12A1.635,1.635,0,1,1,12,10.365,1.635,1.635,0,0,1,13.635,12" transform="translate(0 0)" fill="#00241e"/>
    <path id="Path_795" data-name="Path 795" d="M18.367,12a1.635,1.635,0,1,1-1.635-1.635A1.635,1.635,0,0,1,18.367,12" transform="translate(0 0)" fill="#00241e"/>
  </g>
</svg>
