<svg xmlns="http://www.w3.org/2000/svg" xmlns:xlink="http://www.w3.org/1999/xlink" width="19.202" height="23.998" viewBox="0 0 19.202 23.998">
  <defs>
    <clipPath id="clip-path">
      <rect id="Rectangle_248" data-name="Rectangle 248" width="19.202" height="23.998" transform="translate(0 0)" fill="none"/>
    </clipPath>
  </defs>
  <g id="bag" transform="translate(0 0)">
    <g id="Group_297" data-name="Group 297" clip-path="url(#clip-path)">
      <path id="Path_142" data-name="Path 142" d="M17.984,20.93a2.072,2.072,0,0,1-2.062,2.06H3.279a2.071,2.071,0,0,1-2.061-2.06,8.6,8.6,0,0,1,0-3.777,8.874,8.874,0,0,1,.375-1.179,20.5,20.5,0,0,0,.936-7.023A2.728,2.728,0,0,1,5.253,6.227h8.7a2.729,2.729,0,0,1,2.724,2.724,20.478,20.478,0,0,0,.936,7.027,8.874,8.874,0,0,1,.375,1.179A8.608,8.608,0,0,1,17.984,20.93Z" fill="none" stroke="#09322B" stroke-miterlimit="10" stroke-width="2.016"/>
      <path id="Path_143" data-name="Path 143" d="M12.8,6.227H6.257a3.8,3.8,0,0,1-.277-.8,3.635,3.635,0,1,1,6.824.8Z" fill="none" stroke="#09322B" stroke-miterlimit="10" stroke-width="2.016"/>
    </g>
  </g>
</svg>
