<svg xmlns="http://www.w3.org/2000/svg" xmlns:xlink="http://www.w3.org/1999/xlink" width="24.033" height="22.072" viewBox="0 0 24.033 22.072">
  <defs>
    <clipPath id="clip-path">
      <rect id="Rectangle_257" data-name="Rectangle 257" width="24.033" height="22.072" transform="translate(0 0)" fill="none"/>
    </clipPath>
  </defs>
  <g id="heart" transform="translate(0 0)">
    <g id="Group_305" data-name="Group 305" clip-path="url(#clip-path)">
      <path id="Path_158" data-name="Path 158" d="M11.948,21.056a56.4,56.4,0,0,1-5.641-5.041c-3-3.07-4.516-4.655-5.03-7.112C1.079,7.96.408,4.753,2.5,2.619A5.709,5.709,0,0,1,8.957,1.584a6.128,6.128,0,0,1,2.991,3.521,6.394,6.394,0,0,1,2.311-2.762,5.812,5.812,0,0,1,4.418-.9,6.279,6.279,0,0,1,4.282,5.178c.405,2.8-1.371,5-3.738,7.941A30.236,30.236,0,0,1,11.948,21.056Z" fill="none" stroke="#09322b" stroke-linecap="round" stroke-linejoin="round" stroke-width="2.033"/>
    </g>
  </g>
</svg>
