<svg id="instagram" xmlns="http://www.w3.org/2000/svg" xmlns:xlink="http://www.w3.org/1999/xlink" width="24" height="24" viewBox="0 0 24 24">
  <defs>
    <clipPath id="clip-path">
      <rect id="Rectangle_266" data-name="Rectangle 266" width="24" height="24" fill="none"/>
    </clipPath>
  </defs>
  <g id="Group_315" data-name="Group 315" clip-path="url(#clip-path)">
    <path id="Path_192" data-name="Path 192" d="M12,2.163c3.2,0,3.583.012,4.849.07a6.668,6.668,0,0,1,2.227.413,3.968,3.968,0,0,1,2.282,2.282,6.648,6.648,0,0,1,.412,2.228c.058,1.266.071,1.645.071,4.85s-.012,3.584-.071,4.849a6.654,6.654,0,0,1-.412,2.229,3.976,3.976,0,0,1-2.278,2.277,6.644,6.644,0,0,1-2.227.413c-1.266.057-1.645.07-4.849.07s-3.584-.012-4.849-.07a6.649,6.649,0,0,1-2.228-.413,3.722,3.722,0,0,1-1.383-.9,3.722,3.722,0,0,1-.9-1.383,6.655,6.655,0,0,1-.413-2.229c-.057-1.265-.07-1.645-.07-4.849s.012-3.584.07-4.85a6.649,6.649,0,0,1,.413-2.228,3.722,3.722,0,0,1,.9-1.383,3.722,3.722,0,0,1,1.383-.9A6.625,6.625,0,0,1,7.155,2.23C8.417,2.174,8.793,2.163,12,2.163M12,0C8.74,0,8.333.014,7.052.072A8.812,8.812,0,0,0,4.14.631,5.874,5.874,0,0,0,2.015,2.014,5.871,5.871,0,0,0,.631,4.141,8.812,8.812,0,0,0,.072,7.053C.014,8.334,0,8.742,0,12S.014,15.67.072,16.95a8.806,8.806,0,0,0,.559,2.911,5.886,5.886,0,0,0,1.383,2.126A5.874,5.874,0,0,0,4.139,23.37a8.811,8.811,0,0,0,2.912.558C8.336,23.987,8.74,24,12,24s3.667-.013,4.947-.072a8.812,8.812,0,0,0,2.913-.558,6.137,6.137,0,0,0,3.511-3.509,8.812,8.812,0,0,0,.558-2.913C23.986,15.664,24,15.26,24,12s-.014-3.668-.072-4.949a8.811,8.811,0,0,0-.558-2.912,5.886,5.886,0,0,0-1.383-2.126A5.882,5.882,0,0,0,19.858.631,8.832,8.832,0,0,0,16.947.072C15.667.014,15.259,0,12,0m0,5.839A6.163,6.163,0,1,0,18.162,12,6.162,6.162,0,0,0,12,5.839M12,16a4,4,0,1,1,4-4,4,4,0,0,1-4,4M19.845,5.595A1.441,1.441,0,1,1,18.406,4.15a1.441,1.441,0,0,1,1.439,1.445v0" fill="#fff"/>
  </g>
</svg>
