<svg xmlns="http://www.w3.org/2000/svg" width="38.184" height="38.184" viewBox="0 0 38.184 38.184">
  <g id="Group_334" data-name="Group 334" transform="translate(19.092) rotate(45)">
    <g id="Rectangle_16" data-name="Rectangle 16" fill="none" stroke="#fff" stroke-width="1.8">
      <rect width="7" height="7" rx="3.5" stroke="none"/>
      <rect x="0.9" y="0.9" width="5.2" height="5.2" rx="2.6" fill="none"/>
    </g>
    <g id="Rectangle_17" data-name="Rectangle 17" transform="translate(10)" fill="none" stroke="#fff" stroke-width="1.8">
      <rect width="7" height="7" rx="3.5" stroke="none"/>
      <rect x="0.9" y="0.9" width="5.2" height="5.2" rx="2.6" fill="none"/>
    </g>
    <g id="Rectangle_18" data-name="Rectangle 18" transform="translate(20)" fill="none" stroke="#fff" stroke-width="1.8">
      <rect width="7" height="7" rx="3.5" stroke="none"/>
      <rect x="0.9" y="0.9" width="5.2" height="5.2" rx="2.6" fill="none"/>
    </g>
    <g id="Rectangle_19" data-name="Rectangle 19" transform="translate(0 10)" fill="none" stroke="#fff" stroke-width="1.8">
      <rect width="7" height="7" rx="3.5" stroke="none"/>
      <rect x="0.9" y="0.9" width="5.2" height="5.2" rx="2.6" fill="none"/>
    </g>
    <g id="Rectangle_20" data-name="Rectangle 20" transform="translate(10 10)" fill="none" stroke="#fff" stroke-width="1.8">
      <rect width="7" height="7" rx="3.5" stroke="none"/>
      <rect x="0.9" y="0.9" width="5.2" height="5.2" rx="2.6" fill="none"/>
    </g>
    <g id="Rectangle_21" data-name="Rectangle 21" transform="translate(20 10)" fill="none" stroke="#fff" stroke-width="1.8">
      <rect width="7" height="7" rx="3.5" stroke="none"/>
      <rect x="0.9" y="0.9" width="5.2" height="5.2" rx="2.6" fill="none"/>
    </g>
    <g id="Rectangle_22" data-name="Rectangle 22" transform="translate(0 20)" fill="none" stroke="#fff" stroke-width="1.8">
      <rect width="7" height="7" rx="3.5" stroke="none"/>
      <rect x="0.9" y="0.9" width="5.2" height="5.2" rx="2.6" fill="none"/>
    </g>
    <g id="Rectangle_23" data-name="Rectangle 23" transform="translate(10 20)" fill="none" stroke="#fff" stroke-width="1.8">
      <rect width="7" height="7" rx="3.5" stroke="none"/>
      <rect x="0.9" y="0.9" width="5.2" height="5.2" rx="2.6" fill="none"/>
    </g>
    <g id="Rectangle_24" data-name="Rectangle 24" transform="translate(20 20)" fill="none" stroke="#fff" stroke-width="1.8">
      <rect width="7" height="7" rx="3.5" stroke="none"/>
      <rect x="0.9" y="0.9" width="5.2" height="5.2" rx="2.6" fill="none"/>
    </g>
  </g>
</svg>
