<svg xmlns="http://www.w3.org/2000/svg" width="27" height="27" viewBox="0 0 27 27">
  <g id="Group_12" data-name="Group 12" transform="translate(-64 -39)">
    <g id="Rectangle_16" data-name="Rectangle 16" transform="translate(64 39)" fill="none" stroke="#09322b" stroke-width="1.8">
      <rect width="7" height="7" rx="3.5" stroke="none"/>
      <rect x="0.9" y="0.9" width="5.2" height="5.2" rx="2.6" fill="none"/>
    </g>
    <g id="Rectangle_17" data-name="Rectangle 17" transform="translate(74 39)" fill="none" stroke="#09322b" stroke-width="1.8">
      <rect width="7" height="7" rx="3.5" stroke="none"/>
      <rect x="0.9" y="0.9" width="5.2" height="5.2" rx="2.6" fill="none"/>
    </g>
    <g id="Rectangle_18" data-name="Rectangle 18" transform="translate(84 39)" fill="none" stroke="#09322b" stroke-width="1.8">
      <rect width="7" height="7" rx="3.5" stroke="none"/>
      <rect x="0.9" y="0.9" width="5.2" height="5.2" rx="2.6" fill="none"/>
    </g>
    <g id="Rectangle_19" data-name="Rectangle 19" transform="translate(64 49)" fill="none" stroke="#09322b" stroke-width="1.8">
      <rect width="7" height="7" rx="3.5" stroke="none"/>
      <rect x="0.9" y="0.9" width="5.2" height="5.2" rx="2.6" fill="none"/>
    </g>
    <g id="Rectangle_20" data-name="Rectangle 20" transform="translate(74 49)" fill="none" stroke="#09322b" stroke-width="1.8">
      <rect width="7" height="7" rx="3.5" stroke="none"/>
      <rect x="0.9" y="0.9" width="5.2" height="5.2" rx="2.6" fill="none"/>
    </g>
    <g id="Rectangle_21" data-name="Rectangle 21" transform="translate(84 49)" fill="none" stroke="#09322b" stroke-width="1.8">
      <rect width="7" height="7" rx="3.5" stroke="none"/>
      <rect x="0.9" y="0.9" width="5.2" height="5.2" rx="2.6" fill="none"/>
    </g>
    <g id="Rectangle_22" data-name="Rectangle 22" transform="translate(64 59)" fill="none" stroke="#09322b" stroke-width="1.8">
      <rect width="7" height="7" rx="3.5" stroke="none"/>
      <rect x="0.9" y="0.9" width="5.2" height="5.2" rx="2.6" fill="none"/>
    </g>
    <g id="Rectangle_23" data-name="Rectangle 23" transform="translate(74 59)" fill="none" stroke="#09322b" stroke-width="1.8">
      <rect width="7" height="7" rx="3.5" stroke="none"/>
      <rect x="0.9" y="0.9" width="5.2" height="5.2" rx="2.6" fill="none"/>
    </g>
    <g id="Rectangle_24" data-name="Rectangle 24" transform="translate(84 59)" fill="none" stroke="#09322b" stroke-width="1.8">
      <rect width="7" height="7" rx="3.5" stroke="none"/>
      <rect x="0.9" y="0.9" width="5.2" height="5.2" rx="2.6" fill="none"/>
    </g>
  </g>
</svg>
