<svg xmlns="http://www.w3.org/2000/svg" width="91.711" height="24.501" viewBox="0 0 91.711 24.501">
  <g id="Group_6" data-name="Group 6" transform="translate(0.5 0.677)">
    <g id="Group_3" data-name="Group 3">
      <g id="Group_153" data-name="Group 153">
        <path id="Path_1" data-name="Path 1" d="M.427,53.352c1.53,0,1.805-.151,1.805-1.43V38.153c0-1.228-.175-1.354-1.78-1.354v-.476c1.505,0,3.536-.051,4.564-.126V38.53A3.5,3.5,0,0,1,8.477,36.1c3.21,0,4.966,2.709,4.966,6.195,0,3.711-2.032,6.495-5.317,6.495a3.278,3.278,0,0,1-3.135-1.755v4.915c0,1.154.552,1.405,1.906,1.405v.5H.427Zm9.931-10.935c0-2.909-.527-5.367-2.583-5.367-2.132,0-2.784,2.533-2.784,4.163V44.6c0,1.63.727,3.285,2.658,3.285,2.258,0,2.709-3.059,2.709-5.467" transform="translate(-0.427 -30.529)" fill="#09322b" stroke="#09322b" stroke-width="1"/>
        <path id="Path_2" data-name="Path 2" d="M.427,53.352c1.53,0,1.805-.151,1.805-1.43V38.153c0-1.228-.175-1.354-1.78-1.354v-.476c1.505,0,3.536-.051,4.564-.126V38.53A3.5,3.5,0,0,1,8.477,36.1c3.21,0,4.966,2.709,4.966,6.195,0,3.711-2.032,6.495-5.317,6.495a3.278,3.278,0,0,1-3.135-1.755v4.915c0,1.154.552,1.405,1.906,1.405v.5H.427Zm9.931-10.935c0-2.909-.527-5.367-2.583-5.367-2.132,0-2.784,2.533-2.784,4.163V44.6c0,1.63.727,3.285,2.658,3.285C9.907,47.884,10.358,44.825,10.358,42.417Z" transform="translate(-0.427 -30.529)" fill="#09322b" stroke="#09322b" stroke-miterlimit="10" stroke-width="0.853"/>
        <path id="Path_3" data-name="Path 3" d="M17,48.11c1.63,0,1.856-.125,1.856-1.58V32.812c0-1.154-.2-1.305-1.856-1.305v-.476a18.489,18.489,0,0,0,4.64-.5v16.1c0,1.254.326,1.48,1.855,1.48v.5H17Z" transform="translate(-0.427 -30.529)" fill="#09322b" stroke="#09322b" stroke-width="1"/>
        <path id="Path_4" data-name="Path 4" d="M17,48.11c1.63,0,1.856-.125,1.856-1.58V32.812c0-1.154-.2-1.305-1.856-1.305v-.476a18.489,18.489,0,0,0,4.64-.5v16.1c0,1.254.326,1.48,1.855,1.48v.5H17Z" transform="translate(-0.427 -30.529)" fill="#09322b" stroke="#09322b" stroke-miterlimit="10" stroke-width="0.853"/>
        <path id="Path_5" data-name="Path 5" d="M26.458,48.11c1.58,0,1.831-.15,1.831-1.329V38.1c0-1.2-.226-1.3-1.831-1.3v-.476c1.48,0,3.411-.051,4.615-.126v2.182a3.824,3.824,0,0,1,3.586-2.257,3.427,3.427,0,0,1,3.787,3.712v6.947c0,1.154.251,1.329,1.755,1.329v.5H34.082v-.5c1.4,0,1.58-.15,1.58-1.329V39.633c0-1.329-.426-2.483-1.831-2.483-1.856,0-2.784,1.781-2.784,3.687v6.069c0,1.054.276,1.2,1.581,1.2v.5h-6.17Z" transform="translate(-0.427 -30.529)" fill="#09322b" stroke="#09322b" stroke-width="1"/>
        <path id="Path_6" data-name="Path 6" d="M26.458,48.11c1.58,0,1.831-.15,1.831-1.329V38.1c0-1.2-.226-1.3-1.831-1.3v-.476c1.48,0,3.411-.051,4.615-.126v2.182a3.824,3.824,0,0,1,3.586-2.257,3.427,3.427,0,0,1,3.787,3.712v6.947c0,1.154.251,1.329,1.755,1.329v.5H34.082v-.5c1.4,0,1.58-.15,1.58-1.329V39.633c0-1.329-.426-2.483-1.831-2.483-1.856,0-2.784,1.781-2.784,3.687v6.069c0,1.054.276,1.2,1.581,1.2v.5h-6.17Z" transform="translate(-0.427 -30.529)" fill="#09322b" stroke="#09322b" stroke-miterlimit="10" stroke-width="0.853"/>
        <path id="Path_7" data-name="Path 7" d="M43.136,48.11c1.58,0,1.831-.15,1.831-1.329V32.812c0-1.2-.226-1.305-1.831-1.305v-.476a17.559,17.559,0,0,0,4.615-.5l-.026,11.637c1.28-1.154,2.433-2.207,3.612-3.285.426-.376,1.028-.978,1.028-1.455,0-.551-.451-.627-1.831-.627v-.476h5.894V36.8a3.378,3.378,0,0,0-2.558.652c-1.1.928-2.057,1.806-2.959,2.634,1.429,2.232,2.934,4.614,4.564,7.172a1.911,1.911,0,0,0,1.781.853v.5h-6.4v-.5c1.58,0,1.781-.2,1.1-1.3-.828-1.329-2.583-4.113-3.11-4.966-.351.3-.828.677-1.129.928v4.138c0,1.054.276,1.2,1.581,1.2v.5h-6.17Z" transform="translate(-0.427 -30.529)" fill="#09322b" stroke="#09322b" stroke-width="1"/>
        <path id="Path_8" data-name="Path 8" d="M43.136,48.11c1.58,0,1.831-.15,1.831-1.329V32.812c0-1.2-.226-1.305-1.831-1.305v-.476a17.559,17.559,0,0,0,4.615-.5l-.026,11.637c1.28-1.154,2.433-2.207,3.612-3.285.426-.376,1.028-.978,1.028-1.455,0-.551-.451-.627-1.831-.627v-.476h5.894V36.8a3.378,3.378,0,0,0-2.558.652c-1.1.928-2.057,1.806-2.959,2.634,1.429,2.232,2.934,4.614,4.564,7.172a1.911,1.911,0,0,0,1.781.853v.5h-6.4v-.5c1.58,0,1.781-.2,1.1-1.3-.828-1.329-2.583-4.113-3.11-4.966-.351.3-.828.677-1.129.928v4.138c0,1.054.276,1.2,1.581,1.2v.5h-6.17Z" transform="translate(-0.427 -30.529)" fill="#09322b" stroke="#09322b" stroke-miterlimit="10" stroke-width="0.853"/>
        <path id="Path_9" data-name="Path 9" d="M61.142,45.4V36.9h-1.58v-.552l.4-.025c2.232-.15,3.185-2.608,3.361-4.69,0-.125.025-.3.025-.426h.577v5.116H66.86V36.9H63.926v8.577c0,1.706.376,2.282,1.229,2.282,1,0,1.279-1.279,1.279-2.407v-.427h.526V45.6c0,2.056-.877,3.235-2.959,3.235-1.58,0-2.859-1-2.859-3.436" transform="translate(-0.427 -30.529)" fill="#09322b" stroke="#09322b" stroke-width="1"/>
        <path id="Path_10" data-name="Path 10" d="M61.142,45.4V36.9h-1.58v-.552l.4-.025c2.232-.15,3.185-2.608,3.361-4.69,0-.125.025-.3.025-.426h.577v5.116H66.86V36.9H63.926v8.577c0,1.706.376,2.282,1.229,2.282,1,0,1.279-1.279,1.279-2.407v-.427h.526V45.6c0,2.056-.877,3.235-2.959,3.235C62.421,48.838,61.142,47.835,61.142,45.4Z" transform="translate(-0.427 -30.529)" fill="#09322b" stroke="#09322b" stroke-miterlimit="10" stroke-width="0.853"/>
        <path id="Path_11" data-name="Path 11" d="M70.07,48.11c1.58,0,1.831-.15,1.831-1.329V38.1c0-1.2-.226-1.3-1.831-1.3v-.476c1.48,0,3.411-.051,4.615-.126v2.182a3.824,3.824,0,0,1,3.586-2.257,3.427,3.427,0,0,1,3.787,3.712v6.947c0,1.154.251,1.329,1.755,1.329v.5H77.694v-.5c1.4,0,1.58-.15,1.58-1.329V39.633c0-1.329-.426-2.483-1.831-2.483-1.856,0-2.784,1.781-2.784,3.687v6.069c0,1.054.276,1.2,1.581,1.2v.5H70.07Z" transform="translate(-0.427 -30.529)" fill="#09322b" stroke="#09322b" stroke-width="1"/>
        <path id="Path_12" data-name="Path 12" d="M70.07,48.11c1.58,0,1.831-.15,1.831-1.329V38.1c0-1.2-.226-1.3-1.831-1.3v-.476c1.48,0,3.411-.051,4.615-.126v2.182a3.824,3.824,0,0,1,3.586-2.257,3.427,3.427,0,0,1,3.787,3.712v6.947c0,1.154.251,1.329,1.755,1.329v.5H77.694v-.5c1.4,0,1.58-.15,1.58-1.329V39.633c0-1.329-.426-2.483-1.831-2.483-1.856,0-2.784,1.781-2.784,3.687v6.069c0,1.054.276,1.2,1.581,1.2v.5H70.07Z" transform="translate(-0.427 -30.529)" fill="#09322b" stroke="#09322b" stroke-miterlimit="10" stroke-width="0.853"/>
        <path id="Path_13" data-name="Path 13" d="M87.726,47.157A1.745,1.745,0,0,1,89.481,45.4a1.724,1.724,0,0,1,1.731,1.756,1.743,1.743,0,1,1-3.486,0" transform="translate(-0.427 -30.529)" fill="#fff"/>
        <path id="Path_14" data-name="Path 14" d="M87.726,47.157A1.745,1.745,0,0,1,89.481,45.4a1.724,1.724,0,0,1,1.731,1.756,1.743,1.743,0,1,1-3.486,0Z" transform="translate(-0.427 -30.529)" fill="#09322b" stroke="#09322b" stroke-miterlimit="10" stroke-width="0.853"/>
      </g>
    </g>
  </g>
</svg>
