<svg xmlns="http://www.w3.org/2000/svg" xmlns:xlink="http://www.w3.org/1999/xlink" width="24" height="20.411" viewBox="0 0 24 20.411">
  <defs>
    <clipPath id="clip-path">
      <rect id="Rectangle_263" data-name="Rectangle 263" width="24" height="20.411" transform="translate(0 0)" fill="none"/>
    </clipPath>
  </defs>
  <g id="reviews" transform="translate(0 0)">
    <g id="Group_312" data-name="Group 312" clip-path="url(#clip-path)">
      <path id="Path_189" data-name="Path 189" d="M21.957,0H2.043A2.041,2.041,0,0,0,0,2.043V13.388a2.041,2.041,0,0,0,2.043,2.044h2.1l.119,4.542a.448.448,0,0,0,.753.317c1.666-1.626,3.352-3.233,5-4.859h11.94A2.04,2.04,0,0,0,24,13.388V2.043A2.04,2.04,0,0,0,21.957,0M7.6,10.215,5.831,9.263l-1.785.952.338-1.983L2.936,6.823l2-.3.892-1.8.873,1.8,2,.3L7.26,8.232Zm6.168,0L12,9.263l-1.785.952.337-1.983L9.1,6.823l2-.3L12,4.721l.873,1.8,2,.3L13.428,8.232Zm6.169,0-1.765-.952-1.785.952.337-1.983L15.273,6.823l2-.3.893-1.8.872,1.8,2,.3L19.6,8.232Z" fill="#fff"/>
    </g>
  </g>
</svg>
