<svg id="subscribe" xmlns="http://www.w3.org/2000/svg" xmlns:xlink="http://www.w3.org/1999/xlink" width="22.023" height="23.94" viewBox="0 0 22.023 23.94">
  <defs>
    <clipPath id="clip-path">
      <rect id="Rectangle_249" data-name="Rectangle 249" width="22.023" height="23.94" transform="translate(0 0)" fill="none"/>
    </clipPath>
  </defs>
  <g id="Group_298" data-name="Group 298" clip-path="url(#clip-path)">
    <path id="Path_144" data-name="Path 144" d="M13.8,21.15a2.791,2.791,0,0,1-5.581,0Z" fill="#fff"/>
    <path id="Path_145" data-name="Path 145" d="M22.018,18.835a1.685,1.685,0,0,1-.516,1.244,1.773,1.773,0,0,1-1.257.514H1.759a1.751,1.751,0,0,1-1.244-.514A1.861,1.861,0,0,1,0,18.835c.018-.8.7-1.2,1.355-1.957a9.856,9.856,0,0,0,1.619-3.536,18.678,18.678,0,0,0,.848-3.779,6.458,6.458,0,0,1,4.81-6.249V2.18a2.18,2.18,0,1,1,4.36,0V3.314A6.474,6.474,0,0,1,17.8,9.563a19.426,19.426,0,0,0,1.742,6.08c.373.638.6.937.6.937,1,1.338,1.8,1.48,1.877,2.255" fill="#fff"/>
  </g>
</svg>
