<svg xmlns="http://www.w3.org/2000/svg" xmlns:xlink="http://www.w3.org/1999/xlink" width="64" height="64" viewBox="0 0 64 64">
  <defs>
    <clipPath id="clip-path">
      <rect id="Rectangle_49" data-name="Rectangle 49" width="32.065" height="35.312" fill="#fff"/>
    </clipPath>
  </defs>
  <g id="Group_341" data-name="Group 341" transform="translate(-975 -210.222)">
    <circle id="Ellipse_170" data-name="Ellipse 170" cx="32" cy="32" r="32" transform="translate(975 210.222)" fill="#00241e"/>
    <g id="Group_135" data-name="Group 135" transform="translate(990 224.566)">
      <g id="Group_67" data-name="Group 67" transform="translate(0 0)" clip-path="url(#clip-path)">
        <path id="Path_57" data-name="Path 57" d="M15.856,35.213c.768-.281,1.215-.988,1.774-2.071.892-1.722.732-1.808,1.183-2.514.9-1.409,1.549-1.087,2.441-2.292,1.134-1.534.415-2.5,1.478-4.438a9.938,9.938,0,0,1,2.218-2.439c2.168-1.992,3.11-2.143,5.268-4.236a6.819,6.819,0,0,0,1.832-3.307.715.715,0,0,0-1-.865c-.344.14-.474.538-.72,1.555-.343,1.409-.307,1.516-.418,1.859-.54,1.666-2.588,2.814-3.147,2.426-.235-.162-.2-.6-.15-1.251a7.076,7.076,0,0,1,.492-1.9c.2-.585.421-1.242.608-1.971.453-1.777.244-2.251.114-2.465-.155-.254-.481-.617-.8-.568-.522.08-.731,1.235-.8,1.592-.3,1.668.259,2.824-.075,3-.262.134-.818-.466-.91-.568a5.578,5.578,0,0,1-1.024-4.134,25.593,25.593,0,0,1,.417-2.54c.2-.958.358-1.426.077-1.782a1.181,1.181,0,0,0-1.441-.229c-.388.25-.453.761-.493,1.328a10.52,10.52,0,0,0,.113,3.641c.633,2.586,1.516,2.672,2.011,5.119a5.514,5.514,0,0,1,0,2.881c-.307.946-1.156,2.457-2.238,2.389a1.823,1.823,0,0,1-1.365-1.062c-.421-.85-.1-1.689.229-2.883.547-1.974,1.3-4.785.3-6.6-.12-.22-.436-.8-.872-.8-.411,0-.818.522-.91,1.024-.134.735.475,1.047.835,2.086.412,1.189.265,2.66-.227,2.844-.465.174-1.226-.8-1.517-1.176s-2.011-2.577-1.4-5A10.137,10.137,0,0,1,19.26,6.985a6.463,6.463,0,0,0,1.1-2.048c.2-.8.275-2.056-.265-2.313a1.1,1.1,0,0,0-1.1.379c-.462.486-.185.956-.454,2.048a11.664,11.664,0,0,1-1.1,2.236c-.564,1.021-.726,1.177-.91,1.176-.462,0-.792-1.009-.872-1.251a5.284,5.284,0,0,1-.075-2.731c.286-1.459.752-1.729.72-2.919-.012-.424-.036-1.307-.531-1.517-.4-.171-.958.167-1.251.493a1.8,1.8,0,0,0-.423.947,12.406,12.406,0,0,0,.233,5.31,89.584,89.584,0,0,0,5.232,11.793,11.062,11.062,0,0,1,1.253,3.487,7.724,7.724,0,0,1-.189,4.134c-.477,1.281-.895,1.054-2.5,3.412-1.271,1.866-1.492,2.716-2.236,2.768-.788.057-1.52-.823-1.821-1.478a2.909,2.909,0,0,1,0-2.275c.295-.719.808-1.12,1.821-1.9,1.265-.967,1.783-1.02,2.313-1.859.152-.239.663-1.05.341-1.516a.788.788,0,0,0-.872-.266c-.313.125-.42.507-.493.72-.442,1.3-1.621,2.442-1.971,2.314-.311-.114-.137-1.292-.114-1.442a5.941,5.941,0,0,1,.758-2.084c.492-.913.58-2.011.759-4.209.18-2.232.277-3.663-.608-4.438-.042-.038-.6-.513-.947-.341-.439.215-.346,1.334-.189,2.011.242,1.053.65,1.108.872,2.047.247,1.048.057,2.325-.418,2.465-.116.035-.364.036-1.214-.947-1.23-1.426-1.859-2.155-2.009-3.26a6.768,6.768,0,0,1,.645-3.262c.353-.935.741-1.541.531-2.35-.011-.038-.25-.92-.759-.986s-.994.752-1.174,1.062a6.167,6.167,0,0,0-.608,3.982,8.762,8.762,0,0,0,1.9,4.626c.794.932,1.474,1.251,1.859,2.389a4.329,4.329,0,0,1,.15,2.084c-.128.847-.611,2.493-1.4,2.541-.635.038-1.367-.959-1.553-1.859-.159-.762.143-1.128-.152-2.047-.09-.283-.317-.988-.72-1.024-.32-.029-.651.37-.8.72-.445,1.066.51,2.436.872,2.958.741,1.066,1.263,1.177,1.592,2.161.162.484.313,1.283.038,1.441-.253.147-.758-.31-1.82-1.326-3.017-2.889-3.253-3.338-3.421-3.8a3.679,3.679,0,0,1-.1-2.994c.481-.841,1.189-.7,2.1-1.9.326-.43.977-1.29.7-2.1-.149-.43-.564-.856-.9-.8-.374.063-.236.86-.7,2-.37.905-1.086,1.974-1.516,1.869-.379-.092-.438-1.063-.451-1.277a5.485,5.485,0,0,1,.826-3.006s.633-1.2,1.917-4.059a15.812,15.812,0,0,0,1.465-4.621c.128-.977.317-2.55-.414-2.968a1.029,1.029,0,0,0-1.051.075c-.418.31-.414.943-.414,1.391,0,1.128-.059,2.254-.075,3.382-.03,1.958-.785,4.078-1.429,4.095-.355.009-.641-.626-1.089-1.615a7.054,7.054,0,0,1-.714-2.4C5.31,7.067,5.656,6.483,5.236,6.1A1,1,0,0,0,4.147,5.99c-.639.353-.547,1.5-.526,1.767.083,1.029.561,1.411,1.841,3.493,1,1.626,1.194,2.186,1.128,2.818a3.361,3.361,0,0,1-.639,1.466c-1.54,2.693.735,6.48-.038,6.875-.245.125-.665-.23-1.5-.94-1.5-1.272-2.283-1.931-2.555-3-.341-1.34.475-1.862-.038-3.457-.041-.125-.454-1.379-.94-1.353-.444.024-.708,1.1-.752,1.278a5.545,5.545,0,0,0,.451,3.532c1.053,2.25,2.922,3.872,6.238,6.762,3.453,3.011,5.193,4.543,5.823,5.862A20.554,20.554,0,0,1,14.3,34.13c.077.269.242.929.746,1.129a1.131,1.131,0,0,0,.814-.047" transform="translate(0 0)" fill="#fff"/>
      </g>
    </g>
  </g>
</svg>
