<svg xmlns="http://www.w3.org/2000/svg" xmlns:xlink="http://www.w3.org/1999/xlink" width="24" height="19.502" viewBox="0 0 24 19.502">
  <defs>
    <clipPath id="clip-path">
      <rect id="Rectangle_265" data-name="Rectangle 265" width="24" height="19.502" transform="translate(0 0)" fill="none"/>
    </clipPath>
  </defs>
  <g id="twitter" transform="translate(0 0)">
    <g id="Group_314" data-name="Group 314" clip-path="url(#clip-path)">
      <path id="Path_191" data-name="Path 191" d="M21.543,4.855c.015.211.015.423.015.636A13.915,13.915,0,0,1,7.74,19.5H7.547A13.947,13.947,0,0,1,0,17.293a10.2,10.2,0,0,0,1.172.071,9.884,9.884,0,0,0,6.115-2.113,4.929,4.929,0,0,1-4.6-3.42,4.912,4.912,0,0,0,2.223-.085A4.925,4.925,0,0,1,.958,6.92V6.857a4.9,4.9,0,0,0,2.235.616A4.93,4.93,0,0,1,1.672.9,13.975,13.975,0,0,0,11.819,6.043,4.929,4.929,0,0,1,20.21,1.551,9.9,9.9,0,0,0,23.337.356,4.941,4.941,0,0,1,21.173,3.08,9.814,9.814,0,0,0,24,2.3a10,10,0,0,1-2.457,2.551" fill="#fff"/>
    </g>
  </g>
</svg>
